<?xml version="1.0" encoding="UTF-8"?> <svg xmlns="http://www.w3.org/2000/svg" width="52" height="61" viewBox="0 0 52 61" fill="none"> <rect x="0.473017" y="4.47302" width="51.054" height="52.054" rx="15.527" stroke="#DCE5F2" stroke-width="0.946034"></rect> <path d="M22.7148 27.3398H25.7227C26.6862 27.3398 27.4805 27.1771 28.1055 26.8516C28.7305 26.513 29.1927 26.0443 29.4922 25.4453C29.8047 24.8333 29.9609 24.1237 29.9609 23.3164C29.9609 22.5872 29.8177 21.9427 29.5312 21.3828C29.2578 20.8099 28.8346 20.3672 28.2617 20.0547C27.6888 19.7292 26.9661 19.5664 26.0938 19.5664C25.4036 19.5664 24.7656 19.7031 24.1797 19.9766C23.5938 20.25 23.125 20.6341 22.7734 21.1289C22.4219 21.6237 22.2461 22.2227 22.2461 22.9258H16.6016C16.6016 21.3633 17.0182 20.0026 17.8516 18.8438C18.6979 17.6849 19.8307 16.7799 21.25 16.1289C22.6693 15.4779 24.2318 15.1523 25.9375 15.1523C27.8646 15.1523 29.5508 15.4648 30.9961 16.0898C32.4414 16.7018 33.5677 17.6068 34.375 18.8047C35.1823 20.0026 35.5859 21.487 35.5859 23.2578C35.5859 24.1562 35.3776 25.0286 34.9609 25.875C34.5443 26.7083 33.9453 27.4635 33.1641 28.1406C32.3958 28.8047 31.4583 29.3385 30.3516 29.7422C29.2448 30.1328 28.0013 30.3281 26.6211 30.3281H22.7148V27.3398ZM22.7148 31.6172V28.707H26.6211C28.1706 28.707 29.5312 28.8828 30.7031 29.2344C31.875 29.5859 32.8581 30.0938 33.6523 30.7578C34.4466 31.4089 35.0456 32.1836 35.4492 33.082C35.8529 33.9674 36.0547 34.9505 36.0547 36.0312C36.0547 37.3594 35.8008 38.5443 35.293 39.5859C34.7852 40.6146 34.069 41.487 33.1445 42.2031C32.2331 42.9193 31.1654 43.4661 29.9414 43.8438C28.7174 44.2083 27.3828 44.3906 25.9375 44.3906C24.7396 44.3906 23.5612 44.2279 22.4023 43.9023C21.2565 43.5638 20.2148 43.0625 19.2773 42.3984C18.3529 41.7214 17.6107 40.875 17.0508 39.8594C16.5039 38.8307 16.2305 37.6133 16.2305 36.207H21.875C21.875 36.9362 22.0573 37.5872 22.4219 38.1602C22.7865 38.7331 23.2878 39.1823 23.9258 39.5078C24.5768 39.8333 25.2995 39.9961 26.0938 39.9961C26.9922 39.9961 27.7604 39.8333 28.3984 39.5078C29.0495 39.1693 29.5443 38.7005 29.8828 38.1016C30.2344 37.4896 30.4102 36.7799 30.4102 35.9727C30.4102 34.931 30.2214 34.0977 29.8438 33.4727C29.4661 32.8346 28.9258 32.3659 28.2227 32.0664C27.5195 31.7669 26.6862 31.6172 25.7227 31.6172H22.7148Z" fill="#EF6B57"></path> </svg> 