<?xml version="1.0" encoding="UTF-8"?> <svg xmlns="http://www.w3.org/2000/svg" width="52" height="61" viewBox="0 0 52 61" fill="none"> <rect x="0.473017" y="4.47302" width="51.054" height="52.054" rx="15.527" stroke="#DCE5F2" stroke-width="0.946034"></rect> <path d="M36.4062 39.6055V44H16.9531V40.25L26.1523 30.3867C27.0768 29.3581 27.806 28.4531 28.3398 27.6719C28.8737 26.8776 29.2578 26.168 29.4922 25.543C29.7396 24.9049 29.8633 24.2995 29.8633 23.7266C29.8633 22.8672 29.7201 22.1315 29.4336 21.5195C29.1471 20.8945 28.724 20.4128 28.1641 20.0742C27.6172 19.7357 26.9401 19.5664 26.1328 19.5664C25.2734 19.5664 24.5312 19.7747 23.9062 20.1914C23.2943 20.6081 22.8255 21.1875 22.5 21.9297C22.1875 22.6719 22.0312 23.5117 22.0312 24.4492H16.3867C16.3867 22.7565 16.7904 21.207 17.5977 19.8008C18.4049 18.3815 19.5443 17.2552 21.0156 16.4219C22.487 15.5755 24.2318 15.1523 26.25 15.1523C28.2422 15.1523 29.9219 15.4779 31.2891 16.1289C32.6693 16.7669 33.7109 17.6914 34.4141 18.9023C35.1302 20.1003 35.4883 21.5326 35.4883 23.1992C35.4883 24.1367 35.3385 25.0547 35.0391 25.9531C34.7396 26.8385 34.3099 27.724 33.75 28.6094C33.2031 29.4818 32.5391 30.3672 31.7578 31.2656C30.9766 32.1641 30.1107 33.0951 29.1602 34.0586L24.2188 39.6055H36.4062Z" fill="#EF6B57"></path> </svg> 