<svg width="342" height="342" viewBox="0 0 342 342" fill="none" xmlns="http://www.w3.org/2000/svg">
<path d="M37.7332 29.8666C29.8665 32.3999 24.5332 36.5332 20.3998 43.7332L16.6665 49.9999V149.467V248.933L20.6665 255.467C23.1998 259.467 27.1998 263.467 31.1998 266L37.7332 270L88.5332 270.667L139.333 271.333L139.733 274.8C140.267 279.2 135.6 284.933 124.267 293.467C116.4 299.333 114.933 300 108.533 300C102.8 300 101.067 300.533 99.4665 302.933C96.7998 306.8 96.7998 307.467 99.9998 310.667C102.533 313.2 104.4 313.333 170.667 313.333C236.933 313.333 238.8 313.2 241.333 310.667C244.533 307.467 244.533 306.8 241.867 302.933C240.267 300.533 238.533 300 232.667 300C225.867 300 224.933 299.6 215.467 292C204.267 283.067 200.933 278.933 201.6 274.4L202 271.333L252.8 270.667L303.6 270L310.133 266C314.133 263.467 318.133 259.467 320.667 255.467L324.667 248.933V149.467V49.9999L320.933 43.7332C316.667 36.3999 311.467 32.3999 303.067 29.8666C294.267 27.1999 46.2665 27.3332 37.7332 29.8666ZM302.8 43.3332C304.933 44.5332 308 47.3332 309.333 49.7332C311.867 53.8666 312 57.0666 312 135.6V217.333H170.667H29.3332V136C29.3332 46.1332 29.0665 49.1999 37.7332 43.9999C41.8665 41.4666 45.4665 41.3332 170.4 41.3332C283.733 41.3332 299.333 41.5999 302.8 43.3332ZM312 236.933C312 242.267 311.2 246 309.333 248.933C304 257.867 312.133 257.333 170.667 257.333C29.1998 257.333 37.3332 257.867 31.9998 248.933C30.1332 246 29.3332 242.267 29.3332 236.933V229.333H170.667H312V236.933ZM188.267 274.667C187.467 280.133 192.4 289.733 199.067 295.333L204.533 300H170.667H136.8L142.267 295.333C148.933 289.733 153.867 280.133 153.067 274.667L152.4 270.667H170.667H188.933L188.267 274.667Z" fill="#323749"/>
<path d="M150.533 57.4665C149.467 59.5998 149.467 61.1998 150.533 63.4665C151.867 66.6665 152.267 66.6665 170.533 66.6665C188.267 66.6665 189.333 66.5332 190.8 63.8665C191.867 61.7332 191.867 60.1332 190.8 57.8665C189.467 54.6665 189.067 54.6665 170.8 54.6665C153.067 54.6665 152 54.7998 150.533 57.4665Z" fill="#76AD80"/>
<path d="M85.0663 83.0666C67.8663 88.9333 56.7997 98.9333 49.0663 115.6C45.4663 123.2 44.7997 126.4 44.2663 138C43.333 159.6 48.6663 173.867 62.7997 187.333C80.933 204.667 105.466 208.4 128.8 197.467C165.466 180.267 174.266 129.467 146 98.9333C130.266 81.8666 106.533 75.7333 85.0663 83.0666ZM123.733 97.8666C133.066 102.667 140.8 110.533 145.2 119.867C148.266 126.533 148.666 128.933 148.666 142C148.666 152.933 148 158 146.4 161.733L144.133 166.667L137.866 162.667C129.733 157.6 122.266 156.533 114.133 159.2C106.133 161.867 100.666 161.867 92.133 159.067C86.2663 157.2 84.133 157.2 78.3996 158.533C74.533 159.333 69.4663 161.6 67.0663 163.467L62.533 166.8L59.733 160.533C55.8663 151.733 55.8663 133.067 59.733 123.067C63.0663 114.267 69.1997 106.4 76.7997 101.2C86.3996 94.6666 91.333 93.3333 104.666 93.7333C114.666 94.1333 117.866 94.8 123.733 97.8666ZM96.2663 173.333C102.933 174.8 105.2 174.667 113.333 172.8C123.733 170.267 129.2 170.8 132.8 174.8C134.933 177.2 134.933 177.467 132.666 180C124.8 188.8 102.933 193.2 89.5996 188.8C81.1996 186 70.6663 179.067 71.4663 176.933C71.733 176 73.733 174.267 75.733 172.933C79.5996 170.4 83.5996 170.533 96.2663 173.333Z" fill="#7882AD"/>
<path d="M91.7333 107.067C82.9333 112.4 78.9333 121.6 81.4667 131.2C86.2667 150.133 110 154.133 121.867 138.267C125.867 132.933 125.867 119.067 121.867 113.733C114.533 103.733 101.733 100.933 91.7333 107.067ZM107.2 117.467C117.6 122.267 110.267 138.933 99.6 134.8C92.1333 131.867 91.4667 121.333 98.6667 117.733C102.8 115.6 103.067 115.6 107.2 117.467Z" fill="#7882AD"/>
<path d="M220.4 81.9999C189.467 90.3999 169.333 120.8 174.4 151.067C179.067 177.867 198.933 198 225.333 202.8C256.533 208.4 288.8 186.933 295.867 155.867C299.2 141.733 296.533 124 289.333 111.333C284.667 103.067 272 90.7999 264.267 86.7999C251.333 80.2665 234.133 78.3999 220.4 81.9999ZM256.267 97.5999C293.467 114.933 293.467 168 256.267 186.267C249.6 189.6 247.2 190 236 190C225.067 190 222.267 189.467 215.733 186.4C205.2 181.467 196.8 173.333 191.6 162.8C187.733 154.933 187.333 152.933 187.333 142C187.333 131.6 187.867 128.933 191.067 122C196.933 109.333 208.133 99.1999 220.4 95.1999C229.733 92.1332 247.2 93.3332 256.267 97.5999Z" fill="#76A0AD"/>
<path d="M214 115.2C211.866 116.133 208.666 118.4 207.066 120.133C196.8 131.333 200.533 146.533 217.866 163.333C229.2 174.266 233.066 176.666 238 175.466C243.066 174.133 263.333 153.733 266.533 146.533C272.266 134 268.933 121.2 258.533 116C252.4 112.8 247.066 112.666 240.266 115.333C235.733 117.2 234.8 117.2 231.2 115.333C226.533 112.933 219.333 112.8 214 115.2ZM229.6 130.666C231.466 132.8 234.266 134.666 235.6 134.666C237.066 134.666 239.866 132.8 241.733 130.666C246.4 125.466 252.266 125.2 255.466 130C257.466 133.2 257.466 133.733 255.333 139.333C253.2 145.066 238.666 161.333 235.866 161.333C235.066 161.333 231.2 158.133 227.066 154.4C215.866 143.733 211.866 133.733 216.8 128.8C220.133 125.333 225.6 126.133 229.6 130.666Z" fill="#76A0AD"/>
<path d="M137.6 238.933C133.867 242.667 136.667 249.333 142 249.333C143.6 249.333 145.467 248.667 146.4 247.733C147.333 246.8 148 244.933 148 243.333C148 241.733 147.333 239.867 146.4 238.933C145.467 238 143.6 237.333 142 237.333C140.4 237.333 138.533 238 137.6 238.933Z" fill="#76AD80"/>
<path d="M166.133 239.466C163.6 241.866 163.466 243.2 165.333 246.8C168.133 252 177.333 248.933 177.333 242.8C177.333 240.666 173.333 237.333 170.666 237.333C169.333 237.333 167.2 238.266 166.133 239.466Z" fill="#76AD80"/>
<path d="M194.933 238.933C194 239.867 193.333 241.733 193.333 243.333C193.333 244.933 194 246.8 194.933 247.733C195.866 248.667 197.733 249.333 199.333 249.333C200.933 249.333 202.8 248.667 203.733 247.733C204.666 246.8 205.333 244.933 205.333 243.333C205.333 241.733 204.666 239.867 203.733 238.933C202.8 238 200.933 237.333 199.333 237.333C197.733 237.333 195.866 238 194.933 238.933Z" fill="#76AD80"/>
</svg>
