<svg width="342" height="342" viewBox="0 0 342 342" fill="none" xmlns="http://www.w3.org/2000/svg">
<path d="M39.0667 3.19992C24.9333 7.73325 12.9333 18.2666 6.26667 31.9999C2.26667 39.9999 2 41.5999 2 54.6666C2 67.0666 2.4 69.5999 5.6 76.2666C18.2667 103.333 50.1333 115.2 76.6667 102.8C88.4 97.3333 96.4 89.5999 102.133 78.1333C115.467 50.9333 104 18.3999 76.2667 5.59992C67.0667 1.33325 48.2667 0.133254 39.0667 3.19992ZM73.0667 15.8666C81.7333 20.2666 88.8 27.4666 92.9333 35.7333C96.1333 42.2666 96.6667 44.9333 96.6667 54.6666C96.5333 67.9999 93.4667 75.9999 84.6667 84.6666C76 93.4666 68 96.5333 54.6667 96.6666C44.6667 96.6666 42.4 96.1333 35.6 92.7999C27.0667 88.3999 20.4 81.8666 15.7333 73.0666C13.2 68.2666 12.6667 65.3333 12.6667 54.6666C12.6667 43.9999 13.2 41.0666 15.8667 35.9999C21.4667 25.1999 31.2 16.9333 42.6667 13.1999C49.0667 11.0666 66.9333 12.6666 73.0667 15.8666Z" fill="#323749"/>
<path d="M45.7335 29.3332C38.0002 33.9999 35.0668 44.3999 39.2002 52.2666C40.9335 55.4666 40.8002 55.9999 37.8668 58.7999C34.2668 62.2666 31.4668 69.8666 32.2668 74.6666C33.0668 81.1999 42.6668 79.1999 42.6668 72.5332C42.6668 70.9332 44.0002 67.9999 45.7335 66.1332C52.6668 58.1332 63.7335 61.5999 66.5335 72.5332C67.8668 78.1332 68.4002 78.6666 72.0002 78.6666C75.0668 78.6666 76.1335 77.9999 76.8002 75.3332C77.8668 71.1999 74.2668 61.3332 70.6668 57.9999C68.2668 55.8666 68.2668 55.4666 70.1335 51.5999C74.4002 43.5999 70.2668 31.9999 62.0002 28.5332C55.7335 25.9999 50.8002 26.1332 45.7335 29.3332ZM59.2002 39.4666C63.4668 43.5999 60.6668 50.6666 54.9335 50.6666C50.2668 50.6666 48.0002 48.3999 48.0002 43.7332C48.0002 37.9999 55.0668 35.1999 59.2002 39.4666Z" fill="#7882AD"/>
<path d="M271.334 3.06664C253.334 9.06664 239.867 23.3333 235.2 41.3333C227.067 73.0666 249.734 104.8 282.267 107.6C304.667 109.467 326.134 96.9333 335.734 76.2666C338.8 69.6 339.334 66.9333 339.334 54.6666C339.334 41.4666 339.067 40 335.067 32C329.734 20.9333 320.4 11.7333 309.467 6.26664C302.134 2.66664 299.334 1.99997 288.8 1.7333C281.334 1.46664 274.667 1.99997 271.334 3.06664ZM306 16.2666C314 20.4 321.334 27.8666 325.467 36C329.867 44.9333 330.534 59.6 326.8 69.4666C322.934 79.4666 315.067 88.2666 305.6 92.9333C299.067 96.1333 296.4 96.6666 286.667 96.6666C277.334 96.6666 274.134 96 268.667 93.3333C238.667 78.6666 235.6 37.6 263.2 18.9333C272 13.0666 276.267 12 288.667 12.5333C297.067 12.8 300.8 13.6 306 16.2666Z" fill="#323749"/>
<path d="M279.067 28.6666C271.067 32.1332 267.067 43.7332 271.2 51.5999C273.067 55.4666 273.067 55.8666 270.667 57.9999C267.067 61.3332 263.467 71.1999 264.533 75.3332C265.2 77.9999 266.267 78.6666 269.333 78.6666C272.933 78.6666 273.467 78.1332 274.8 72.5332C277.6 61.5999 288.667 58.1332 295.733 66.1332C297.333 67.9999 298.667 70.9332 298.667 72.5332C298.667 79.1999 308.267 81.1999 309.067 74.6666C309.867 69.8666 307.067 62.2666 303.467 58.7999C300.533 55.9999 300.4 55.4666 302.133 52.2666C306.4 44.1332 302.8 32.9332 294.8 28.6666C289.867 26.2666 284.667 26.1332 279.067 28.6666ZM290.8 38.6666C293.733 40.2666 294.267 46.5332 291.733 49.0666C289.2 51.5999 282.933 51.0666 281.333 48.1332C279.467 44.5332 279.6 41.8666 282.133 39.4666C284.533 36.9332 287.2 36.7999 290.8 38.6666Z" fill="#7882AD"/>
<path d="M122.933 52.2666C120.8 54.3999 120.933 56.6666 123.467 59.1999C125.2 61.0666 131.467 61.3333 172 61.3333C212.533 61.3333 218.8 61.0666 220.533 59.1999C223.067 56.7999 223.067 56.5333 221.333 53.1999C220 50.7999 218 50.6666 172.267 50.6666C136.933 50.6666 124.133 51.0666 122.933 52.2666Z" fill="#323749"/>
<path d="M153.733 92.5332C128.4 100.8 111.466 128.533 116 154.4C117.866 165.467 122.533 174.533 131.733 185.333C139.866 194.8 144.666 204.267 146.533 213.733C147.6 219.467 147.333 220 143.866 222.533C136.266 228.133 136.4 240.667 144.133 247.2C148.133 250.667 148.533 250.667 170.666 250.667C192.8 250.667 193.2 250.667 197.2 247.2C204.933 240.667 205.066 228.133 197.466 222.533C194 220 193.733 219.467 194.8 213.733C196.666 204.267 201.466 194.8 209.6 185.333C213.6 180.533 218.533 173.6 220.4 169.733C233.866 143.2 221.466 108.533 193.6 95.1998C187.2 91.9998 184 91.4665 172.666 91.0665C164 90.7998 157.333 91.3332 153.733 92.5332ZM192.4 106.4C206.133 113.867 214.933 128.933 215.2 145.333C215.333 157.733 212.133 165.6 202 177.733C191.733 190.133 187.066 198.8 184.8 209.867L183.066 218H170.533H158.133L157.2 212.667C155.466 202.667 150.666 192.667 143.333 183.333C131.2 168 129.6 165.067 127.2 156C122.133 136.267 132.133 114.8 150.666 105.333C162.266 99.4665 180.533 99.8665 192.4 106.4ZM191.2 231.467C194 234.133 193.866 235.467 190.666 238.667C188.266 241.067 186.266 241.333 170.666 241.333C155.066 241.333 153.066 241.067 150.666 238.667C147.466 235.467 147.333 234.133 150.133 231.467C153.2 228.4 188.133 228.4 191.2 231.467Z" fill="#323749"/>
<path d="M173.467 137.867L164.933 146.4L161.067 143.6C156.533 140.267 152.933 141.6 152.267 146.933C152 149.333 153.2 151.467 157.333 155.067C160.267 157.867 163.467 160 164.4 160C165.333 160 171.333 154.667 177.867 148.133C187.067 138.933 189.467 135.733 189.067 133.2C188.8 130.933 187.733 129.867 185.333 129.6C182.8 129.333 180.133 131.2 173.467 137.867Z" fill="#76AD80"/>
<path d="M53.5999 121.6C51.3332 123.867 51.3332 217.467 53.5999 219.733C55.7332 221.867 57.9999 221.733 60.5332 219.2C62.3999 217.467 62.6666 211.2 62.6666 170.667C62.6666 130.133 62.3999 123.867 60.5332 122.133C57.9999 119.6 55.7332 119.467 53.5999 121.6Z" fill="#323749"/>
<path d="M283.467 122.133C281.6 123.867 281.333 130.133 281.333 170.667C281.333 211.2 281.6 217.467 283.467 219.2C286 221.733 288.267 221.867 290.4 219.733C292.667 217.467 292.667 123.867 290.4 121.6C288.267 119.467 286 119.6 283.467 122.133Z" fill="#323749"/>
<path d="M40 235.333C25.7333 239.467 12.1333 251.067 5.6 265.067C2.4 271.733 2 274.267 2 286.667C2 299.733 2.26667 301.333 6.26667 309.333C8.66667 314.133 13.3333 320.933 16.9333 324.4C20.4 328 27.2 332.667 32 335.067C40 339.067 41.4667 339.333 54.6667 339.333C66.9333 339.333 69.6 338.8 76.2667 335.733C104 322.8 115.467 290.4 102.133 263.2C93.3333 245.6 77.0667 234.933 57.6 233.867C50.9333 233.467 44.8 234 40 235.333ZM72.6667 248.133C81.0667 252.133 89.0667 260.133 93.3333 268.667C96 274.133 96.6667 277.333 96.6667 286.667C96.6667 296.4 96.1333 299.067 92.9333 305.6C88.2667 315.067 79.4667 322.933 69.4667 326.8C59.6 330.533 44.9333 329.867 36 325.467C21.8667 318.267 13.3333 305.467 12.2667 290C11.6 278.667 13.3333 271.6 19.0667 263.2C28.1333 249.867 40.6667 243.6 56.6667 244.4C62.8 244.8 68.2667 246 72.6667 248.133Z" fill="#323749"/>
<path d="M46.8002 260.933C44.4002 262.133 41.2002 265.067 39.8669 267.2C36.9336 272 36.5336 281.067 39.2002 284.667C40.8002 286.933 40.5336 287.733 37.0669 292.133C30.8002 300 30.5336 312 36.8002 312C39.6002 312 42.6669 308.133 42.6669 304.533C42.6669 299.333 48.2669 294.667 54.2669 294.667C61.4669 294.8 66.6669 299.733 66.6669 306.533C66.6669 308 67.8669 309.867 69.3336 310.667C73.2002 312.8 77.3336 310.133 77.3336 305.6C77.3336 301.2 73.2002 292 70.2669 289.467C68.2669 287.867 68.2669 287.333 70.0002 283.867C74.2669 275.733 70.8002 265.467 62.5336 261.333C56.4002 258.133 52.8002 258 46.8002 260.933ZM58.9336 271.6C62.4002 274.667 62.0002 279.467 58.0002 282.133C54.9336 284.133 54.4002 284.133 51.3336 282.133C47.4669 279.6 46.9336 274.667 50.1336 271.467C52.8002 268.667 55.8669 268.8 58.9336 271.6Z" fill="#7882AD"/>
<path d="M274.134 234.8C265.867 236.8 253.734 243.867 247.867 250.267C223.2 277.067 231.867 320.267 265.067 335.733C271.734 338.8 274.4 339.333 286.667 339.333C299.867 339.333 301.333 339.067 309.334 335.067C320.4 329.6 329.6 320.4 335.067 309.333C339.067 301.333 339.334 299.867 339.334 286.667C339.334 274.4 338.8 271.733 335.734 265.067C324.934 241.867 298.8 229.067 274.134 234.8ZM305.867 248.533C331.867 261.2 337.467 297.6 316.4 317.467C307.2 326.4 301.067 328.667 286.667 328.667C276 328.667 273.067 328.133 268.267 325.6C244.134 312.667 236.8 284 252.133 261.733C263.467 245.333 287.2 239.467 305.867 248.533Z" fill="#323749"/>
<path d="M278.4 261.6C270.267 266.267 267.2 276 271.333 283.867C273.067 287.333 273.067 287.867 271.067 289.467C268.133 292 264 301.2 264 305.6C264 310.133 268.133 312.8 272 310.667C273.467 309.867 274.667 308 274.667 306.533C274.667 299.733 279.867 294.8 287.067 294.667C293.067 294.667 298.667 299.333 298.667 304.533C298.667 308.133 301.733 312 304.533 312C310.8 312 310.533 300 304.267 292.133C300.8 287.733 300.533 286.933 302.133 284.667C304.8 281.067 304.4 272 301.467 267.2C298.8 262.8 291.467 258.667 286.4 258.667C284.8 258.667 281.067 260 278.4 261.6ZM291.2 271.467C294.4 274.667 293.867 279.6 290 282.133C286.933 284.133 286.4 284.133 283.333 282.133C279.467 279.6 279.067 275.333 282.267 271.733C284.933 268.8 288.4 268.667 291.2 271.467Z" fill="#7882AD"/>
<path d="M123.733 281.467C120.933 283.067 120.666 286.8 122.933 289.067C124.133 290.267 136.933 290.667 172.266 290.667C218 290.667 220 290.533 221.333 288.133C223.066 284.8 223.066 284.533 220.533 282.133C218.8 280.267 212.533 280 172.266 280C143.333 280 125.066 280.533 123.733 281.467Z" fill="#323749"/>
</svg>
