<svg width="342" height="342" viewBox="0 0 342 342" fill="none" xmlns="http://www.w3.org/2000/svg">
<path d="M162.667 7.59998C150.667 8.26665 136.4 11.0666 125.067 14.8C70.9333 32.4 32.2667 79.6 25.0667 136.8C23.6 147.733 23.0667 149.333 20.2667 150.933C15.0667 153.6 7.33333 163.333 5.6 169.067C4.53333 172.267 4 184.4 4 201.067C4 227.6 4 227.733 7.73333 234.8C18.9333 256.267 48.8 259.867 57.8667 240.933C59.7333 236.933 60 230.8 60 200.133C60 172.533 59.6 162.933 58.1333 159.6C55.8667 154.133 48.9333 148.133 43.7333 147.067C39.8667 146.267 39.8667 146.267 40.6667 139.467C47.4667 86.4 84 43.2 134.133 28.6667C208.667 7.06665 286 55.2 299.333 131.6C302 146.533 302 146.267 297.467 147.067C291.867 148.267 284.267 155.467 282.533 161.067C281.733 164.267 281.333 179.2 281.6 202.8L282 239.6L285.6 244.267C287.733 247.067 291.733 250 295.467 251.467L301.6 254L301.067 266.8C300.667 278.267 300.133 280.4 296.533 286.133C294.133 290.133 290.133 294.133 286.133 296.667C279.867 300.533 278.933 300.667 261.733 301.067C250 301.333 244 301.067 244 300.133C244 297.2 235.6 289.333 230 287.333C225.467 285.467 220.667 285.2 207.067 285.467C190.8 286 189.467 286.267 184.267 289.733C169.2 299.6 169.867 321.733 185.6 330.667C190.933 333.733 192.533 334 209.333 334C230.267 334 235.067 332.4 241.6 323.467L245.467 318L263.733 317.333C280.267 316.667 282.667 316.267 289.6 312.933C299.467 308.133 308.133 299.333 312.8 289.6C316 283.067 316.667 279.733 317.2 266.533L318 251.067L324 246.533C327.467 243.867 331.467 239.067 333.6 234.8C337.333 227.733 337.333 227.6 337.333 201.067C337.333 184.4 336.8 172.267 335.733 169.067C334 163.333 326.133 153.6 320.933 150.8C318.133 149.333 317.467 147.867 316.667 139.6C309.067 62.1333 240 2.93332 162.667 7.59998ZM41.0667 163.467C44 165.467 44 165.867 44 199.867C44 224.667 43.6 234.533 42.4 235.733C40 238.133 33.2 237.6 28.4 234.667C20.6667 230 20 226.933 20 198.8V173.467L24.1333 168.667C27.4667 164.8 32.1333 162.4 37.3333 161.467C37.7333 161.333 39.4667 162.267 41.0667 163.467ZM310.267 163.333C311.867 163.733 315.067 166.267 317.2 168.8L321.333 173.467V198.8C321.333 226.933 320.667 230 312.933 234.667C308.133 237.6 301.333 238.133 298.933 235.733C297.733 234.533 297.333 224.667 297.333 199.867C297.333 165.867 297.333 165.467 300.267 163.467C301.867 162.267 304.133 161.6 305.333 161.867C306.4 162.267 308.667 162.8 310.267 163.333ZM227.333 304.667C231.333 308.533 231.467 310.667 228.133 314.8C225.867 317.733 224.267 318 212.667 318.4C205.733 318.667 198.4 318.533 196.667 318.133C189.467 316.267 187.067 308.933 192 304C194.4 301.6 196.4 301.333 209.333 301.333C223.2 301.333 224.267 301.467 227.333 304.667Z" fill="#323749"/>
<path d="M104.667 88.5334C96.6668 92.2668 91.7335 97.3334 88.1335 105.333C85.6002 110.933 85.3335 114 85.3335 153.333C85.3335 194.533 85.4668 195.467 88.5335 202C93.4668 212.667 102 219.067 114 221.2L119.333 222L120 234C120.4 240.667 121.467 247.333 122.4 248.933C126 255.333 136.533 257.867 143.733 254.133C145.733 253.067 154.267 245.2 162.667 236.8L178 221.333H203.2C218.4 221.333 230.4 220.667 233.467 219.733C240.8 217.6 249.2 210 252.8 202.133C255.867 195.467 256 194.667 256 153.333C256 112 255.867 111.2 252.8 104.667C249.067 96.6668 244 91.7334 236 88.1334C230.267 85.4668 227.467 85.3334 170.667 85.3334H111.333L104.667 88.5334ZM231.6 104C239.734 108.933 240 110.4 240 153.333C240 207.733 242.534 204.4 200.534 205.333L170.667 206L153.333 223.333L136 240.667V226.267C136 212.8 135.733 211.733 132.667 208.667C130 205.867 128.133 205.333 121.733 205.333C112.4 205.333 108.4 203.467 104.4 197.467C101.333 193.067 101.333 192.4 101.333 153.733C101.333 110.4 101.6 108.933 109.733 104C113.733 101.467 116.8 101.333 170.667 101.333C224.534 101.333 227.6 101.467 231.6 104Z" fill="#7882AD"/>
<path d="M127.2 144C120.267 146.8 118 155.733 122.667 161.733C130.667 172 147.6 162.533 142.667 150.667C141.067 146.667 135.333 142.533 131.733 142.8C130.8 142.8 128.667 143.333 127.2 144Z" fill="#76AD80"/>
<path d="M165.333 144.4C158.4 148 157.067 158.267 162.8 163.467C166.8 167.067 175.2 166.8 178.933 162.933C182.933 159.067 183.067 150.4 179.333 146.667C175.867 143.2 169.467 142.133 165.333 144.4Z" fill="#76AD80"/>
<path d="M204.267 144C202.667 144.667 200.4 147.333 199.067 149.867C197.2 153.733 197.2 155.067 198.667 158.667C202.133 167.067 213.067 168.8 218.667 161.733C226 152.4 215.467 139.333 204.267 144Z" fill="#76AD80"/>
</svg>
