<?xml version="1.0" encoding="UTF-8" standalone="no"?>
<!-- Created with Inkscape (http://www.inkscape.org/) -->

<svg
   width="277"
   height="73"
   viewBox="0 0 73.289556 19.314706"
   version="1.1"
   id="svg5"
   inkscape:version="1.2.2 (732a01da63, 2022-12-09)"
   sodipodi:docname="logo.svg"
   xmlns:inkscape="http://www.inkscape.org/namespaces/inkscape"
   xmlns:sodipodi="http://sodipodi.sourceforge.net/DTD/sodipodi-0.dtd"
   xmlns="http://www.w3.org/2000/svg"
   xmlns:svg="http://www.w3.org/2000/svg">
  <sodipodi:namedview
     id="namedview7"
     pagecolor="#ffffff"
     bordercolor="#000000"
     borderopacity="0.25"
     inkscape:showpageshadow="2"
     inkscape:pageopacity="0.0"
     inkscape:pagecheckerboard="0"
     inkscape:deskcolor="#d1d1d1"
     inkscape:document-units="mm"
     showgrid="false"
     inkscape:zoom="0.72782688"
     inkscape:cx="197.16227"
     inkscape:cy="232.88505"
     inkscape:window-width="1920"
     inkscape:window-height="992"
     inkscape:window-x="-8"
     inkscape:window-y="-8"
     inkscape:window-maximized="1"
     inkscape:current-layer="layer1" />
  <defs
     id="defs2">
    <rect
       x="0"
       y="2.7479062"
       width="277.53853"
       height="67.323702"
       id="rect448" />
    <rect
       x="10.991625"
       y="10.991625"
       width="251.43342"
       height="49.462312"
       id="rect442" />
    <rect
       x="57.706032"
       y="56.332077"
       width="252.80737"
       height="59.079979"
       id="rect113" />
  </defs>
  <g
     inkscape:label="Layer 1"
     inkscape:groupmode="layer"
     id="layer1">
    <g
       aria-label="Accounting"
       transform="matrix(0.26458333,0,0,0.26458333,-12.327612,-13.284786)"
       id="text111"
       style="font-size:48px;white-space:pre;shape-inside:url(#rect113)">
      <g
         aria-label="Accountify"
         transform="matrix(1.0000064,0,0,1.0000064,64.453123,53.706049)"
         id="text446">
        <path
           d="m 20.736,45.48171 -3.504,-10.368 H 7.728 l -3.696,10.368 h 3.6 v 0.912 H 0.288 v -0.912 h 2.256 l 12.24,-32.976 h 3.936 l 12.096,32.976 h 2.208 v 0.912 H 17.328 v -0.912 z m -8.064,-24 -4.512,12.576 h 8.688 z"
           id="path464" />
        <path
           d="m 45.552019,23.92971 q -2.112,0 -3.024,2.304 -0.912,2.304 -0.912,7.632 v 2.496 q 0,4.752 1.056,6.816 1.056,2.064 3.888,2.064 2.832,0 4.512,-1.92 1.68,-1.92 2.16,-4.368 l 0.864,0.096 q -0.912,4.128 -3.36,5.952 -2.496,1.872 -6.864,1.872 -5.568,0 -8.544,-2.976 -2.976,-3.024 -2.976,-8.784 0,-5.808 3.36,-8.928 3.408,-3.12 9.456,-3.12 4.272,0 6.528,1.68 2.256,1.632 2.256,4.128 0,2.496 -1.104,3.648 -1.056,1.152 -2.976,1.152 -1.872,0 -3.024,-1.008 -1.152,-1.008 -1.152,-2.976 0,-0.864 0.24,-1.728 h 1.584 q 0.336,-0.96 0.336,-1.728 0,-2.304 -2.304,-2.304 z"
           id="path466" />
        <path
           d="m 68.73601,23.92971 q -2.112,0 -3.024,2.304 -0.912,2.304 -0.912,7.632 v 2.496 q 0,4.752 1.056,6.816 1.056,2.064 3.888,2.064 2.832,0 4.512,-1.92 1.68,-1.92 2.16,-4.368 l 0.864,0.096 q -0.912,4.128 -3.36,5.952 -2.496,1.872 -6.864,1.872 -5.568,0 -8.544,-2.976 -2.976,-3.024 -2.976,-8.784 0,-5.808 3.36,-8.928 3.408,-3.12 9.456,-3.12 4.272,0 6.528,1.68 2.256,1.632 2.256,4.128 0,2.496 -1.104,3.648 -1.056,1.152 -2.976,1.152 -1.872,0 -3.024,-1.008 -1.152,-1.008 -1.152,-2.976 0,-0.864 0.24,-1.728 h 1.584 q 0.336,-0.96 0.336,-1.728 0,-2.304 -2.304,-2.304 z"
           id="path468" />
        <path
           d="m 93.984,36.93771 v -4.08 q 0,-4.656 -0.528,-6.768 -0.48,-2.16 -2.304,-2.16 -1.056,0 -1.728,0.624 -0.624,0.576 -0.912,1.968 -0.432,2.16 -0.432,6.576 v 3.744 q 0,5.232 0.288,6.288 0.336,1.056 0.672,1.728 0.528,1.152 2.064,1.152 1.872,0 2.448,-2.16 0.432,-1.536 0.432,-6.912 z m -2.976,9.936 q -6,0 -9.072,-3.072 -3.072,-3.072 -3.072,-8.784 0,-5.76 3.264,-8.832 3.312,-3.12 9.264,-3.12 5.952,0 8.88,2.88 2.928,2.832 2.928,8.688 0,12.24 -12.192,12.24 z"
           id="path470" />
        <path
           d="m 132.62396,46.39371 h -10.944 l -0.528,-3.504 q -0.768,1.92 -2.304,2.976 -1.488,1.008 -4.464,1.008 -7.44,0 -7.44,-8.016 v -14.448 h -2.688 v -0.864 h 11.616 v 16.464 q 0,2.88 0.384,3.792 0.432,0.912 1.632,0.912 1.248,0 2.208,-1.488 0.96,-1.488 0.96,-4.128 v -14.688 h -2.208 v -0.864 h 11.136 v 21.984 h 2.64 z"
           id="path472" />
        <path
           d="m 133.67994,23.54571 h 11.568 v 4.416 q 0.768,-2.208 2.352,-3.552 1.584,-1.344 4.8,-1.344 7.44,0 7.44,8.016 v 14.448 h 2.688 v 0.864 h -13.584 v -0.864 h 1.968 v -15.6 q 0,-2.88 -0.384,-3.696 -0.384,-0.864 -1.392,-0.864 -1.536,0 -2.736,2.016 -1.152,2.016 -1.152,4.896 v 13.248 h 2.064 v 0.864 h -13.632 v -0.864 h 2.64 v -21.12 h -2.64 z"
           id="path474" />
        <path
           d="m 165.31195,39.52971 v -15.12 h -2.64 v -0.864 h 2.64 v -6.192 l 8.928,-2.208 v 8.4 h 6.24 v 0.864 h -6.24 v 16.176 q 0,2.256 0.432,3.312 0.48,1.056 1.92,1.056 1.44,0 2.496,-1.44 1.104,-1.44 1.44,-3.936 l 0.816,0.096 q -0.384,3.312 -2.112,5.28 -1.728,1.92 -5.712,1.92 -3.984,0 -6.096,-1.584 -2.112,-1.584 -2.112,-5.76 z"
           id="path476" />
        <path
           d="m 188.8799,20.23371 q -2.544,0 -3.648,-1.296 -1.056,-1.296 -1.056,-3.216 0,-1.92 1.152,-3.168 1.2,-1.248 3.6,-1.248 2.4,0 3.648,1.152 1.248,1.104 1.248,3.216 0,2.064 -1.2,3.312 -1.2,1.248 -3.744,1.248 z m -7.248,3.312 h 11.76 v 21.984 h 2.688 v 0.864 h -14.256 v -0.864 h 2.64 v -21.12 h -2.832 z"
           id="path478" />
        <path
           d="m 211.58388,10.10571 q -1.824,0 -2.4,1.392 -0.576,1.344 -0.576,4.368 v 7.68 h 6.336 v 0.864 h -6.336 v 21.12 h 5.856 v 0.864 h -17.424 v -0.864 h 2.64 v -21.12 h -2.784 v -0.864 h 2.784 v -0.192 q 0,-6.912 2.64,-10.464 2.64,-3.5999997 8.832,-3.5999997 4.08,0 5.856,1.6319997 1.776,1.584 1.776,3.696 0,2.112 -1.104,3.168 -1.104,1.056 -2.928,1.056 -1.824,0 -2.832,-0.912 -0.96,-0.96 -0.96,-2.16 0,-1.248 0.288,-2.4 h 1.824 q 0.96,-3.264 -1.488,-3.264 z"
           id="path480" />
        <path
           d="m 215.18385,24.40971 v -0.864 h 13.92 v 0.864 h -2.592 l 5.232,15.936 5.568,-15.936 h -3.216 v -0.864 h 6.768 v 0.864 h -2.4 l -8.976,25.872 q -1.584,4.512 -3.552,6.288 -1.968,1.824 -4.8,1.824 -2.832,0 -4.464,-1.296 -1.632,-1.296 -1.632,-3.312 0,-2.016 1.056,-3.072 1.056,-1.056 2.784,-1.056 3.984,0 3.984,3.312 0,0.72 -0.288,1.728 h -1.68 q -0.384,1.104 -0.096,1.824 0.288,0.72 1.296,0.72 1.968,0 3.504,-1.968 1.536,-1.92 2.928,-5.904 l 1.056,-2.976 h -4.224 l -8.208,-21.984 z"
           id="path482" />
      </g>
    </g>
  </g>
</svg>
