<svg width="241" height="50" viewBox="0 0 241 50" fill="none" xmlns="http://www.w3.org/2000/svg">
<path d="M20.448 36.1918L16.944 25.8238H7.44L3.744 36.1918H7.344V37.1038H0V36.1918H2.256L14.496 3.21582H18.432L30.528 36.1918H32.736V37.1038H17.04V36.1918H20.448ZM12.384 12.1918L7.872 24.7678H16.56L12.384 12.1918Z" fill="#F8F9FA"/>
<path d="M45.264 14.6404C43.856 14.6404 42.848 15.4084 42.24 16.9444C41.632 18.4804 41.328 21.0244 41.328 24.5764V27.0724C41.328 30.2404 41.68 32.5124 42.384 33.8884C43.088 35.2644 44.384 35.9524 46.272 35.9524C48.16 35.9524 49.664 35.3124 50.784 34.0324C51.904 32.7524 52.624 31.2964 52.944 29.6644L53.808 29.7604C53.2 32.5124 52.08 34.4964 50.448 35.7124C48.784 36.9604 46.496 37.5844 43.584 37.5844C39.872 37.5844 37.024 36.5924 35.04 34.6084C33.056 32.5924 32.064 29.6644 32.064 25.8244C32.064 21.9524 33.184 18.9764 35.424 16.8964C37.696 14.8164 40.848 13.7764 44.88 13.7764C47.728 13.7764 49.904 14.3364 51.408 15.4564C52.912 16.5444 53.664 17.9204 53.664 19.5844C53.664 21.2484 53.296 22.4644 52.56 23.2324C51.856 24.0004 50.864 24.3844 49.584 24.3844C48.336 24.3844 47.328 24.0484 46.56 23.3764C45.792 22.7044 45.408 21.7124 45.408 20.4004C45.408 19.8244 45.488 19.2484 45.648 18.6724H47.232C47.456 18.0324 47.568 17.4564 47.568 16.9444C47.568 15.4084 46.8 14.6404 45.264 14.6404Z" fill="#F8F9FA"/>
<path d="M68.448 14.6404C67.04 14.6404 66.0321 15.4084 65.4241 16.9444C64.8161 18.4804 64.512 21.0244 64.512 24.5764V27.0724C64.512 30.2404 64.864 32.5124 65.568 33.8884C66.272 35.2644 67.568 35.9524 69.456 35.9524C71.344 35.9524 72.8481 35.3124 73.9681 34.0324C75.0881 32.7524 75.808 31.2964 76.128 29.6644L76.992 29.7604C76.384 32.5124 75.2641 34.4964 73.6321 35.7124C71.9681 36.9604 69.68 37.5844 66.768 37.5844C63.056 37.5844 60.208 36.5924 58.224 34.6084C56.24 32.5924 55.248 29.6644 55.248 25.8244C55.248 21.9524 56.368 18.9764 58.608 16.8964C60.88 14.8164 64.032 13.7764 68.0641 13.7764C70.9121 13.7764 73.0881 14.3364 74.5921 15.4564C76.0961 16.5444 76.848 17.9204 76.848 19.5844C76.848 21.2484 76.4801 22.4644 75.7441 23.2324C75.0401 24.0004 74.048 24.3844 72.768 24.3844C71.52 24.3844 70.5121 24.0484 69.7441 23.3764C68.9761 22.7044 68.5921 21.7124 68.5921 20.4004C68.5921 19.8244 68.672 19.2484 68.832 18.6724H70.416C70.64 18.0324 70.752 17.4564 70.752 16.9444C70.752 15.4084 69.984 14.6404 68.448 14.6404Z" fill="#F8F9FA"/>
<path d="M93.6962 27.6484V23.5684C93.6962 20.4644 93.5202 18.2084 93.1682 16.8004C92.8482 15.3604 92.0802 14.6404 90.8642 14.6404C90.1602 14.6404 89.5842 14.8484 89.1362 15.2644C88.7202 15.6484 88.4162 16.3044 88.2242 17.2324C87.9362 18.6724 87.7922 20.8644 87.7922 23.8084V27.5524C87.7922 31.0404 87.8882 33.1364 88.0802 33.8404C88.3042 34.5444 88.5282 35.1204 88.7522 35.5684C89.1042 36.3364 89.7922 36.7204 90.8162 36.7204C92.0642 36.7204 92.8802 36.0004 93.2642 34.5604C93.5522 33.5364 93.6962 31.2324 93.6962 27.6484ZM90.7202 37.5844C86.7202 37.5844 83.6962 36.5604 81.6482 34.5124C79.6002 32.4644 78.5762 29.5364 78.5762 25.7284C78.5762 21.8884 79.6642 18.9444 81.8402 16.8964C84.0482 14.8164 87.1362 13.7764 91.1042 13.7764C95.0722 13.7764 98.0322 14.7364 99.9842 16.6564C101.936 18.5444 102.912 21.4404 102.912 25.3444C102.912 33.5044 98.8482 37.5844 90.7202 37.5844Z" fill="#F8F9FA"/>
<path d="M132.336 37.1039H121.392L120.864 33.5999C120.352 34.8799 119.584 35.8719 118.56 36.5759C117.568 37.2479 116.08 37.5839 114.096 37.5839C109.136 37.5839 106.656 34.9119 106.656 29.5679V15.1199H103.968V14.2559H115.584V30.7199C115.584 32.6399 115.712 33.9039 115.968 34.5119C116.256 35.1199 116.8 35.4239 117.6 35.4239C118.432 35.4239 119.168 34.9279 119.808 33.9359C120.448 32.9439 120.768 31.5679 120.768 29.8079V15.1199H118.56V14.2559H129.696V36.2399H132.336V37.1039Z" fill="#F8F9FA"/>
<path d="M133.392 14.2564H144.96V18.6724C145.472 17.2004 146.256 16.0164 147.312 15.1204C148.368 14.2244 149.968 13.7764 152.112 13.7764C157.072 13.7764 159.552 16.4484 159.552 21.7924V36.2404H162.24V37.1044H148.656V36.2404H150.624V20.6404C150.624 18.7204 150.496 17.4884 150.24 16.9444C149.984 16.3684 149.52 16.0804 148.848 16.0804C147.824 16.0804 146.912 16.7524 146.112 18.0964C145.344 19.4404 144.96 21.0724 144.96 22.9924V36.2404H147.024V37.1044H133.392V36.2404H136.032V15.1204H133.392V14.2564Z" fill="#F8F9FA"/>
<path d="M165.024 30.2404V15.1204H162.384V14.2564H165.024V8.06445L173.952 5.85645V14.2564H180.192V15.1204H173.952V31.2964C173.952 32.8004 174.096 33.9044 174.384 34.6084C174.704 35.3124 175.344 35.6644 176.304 35.6644C177.264 35.6644 178.096 35.1844 178.8 34.2244C179.536 33.2644 180.016 31.9524 180.24 30.2884L181.056 30.3844C180.8 32.5924 180.096 34.3524 178.944 35.6644C177.792 36.9444 175.888 37.5844 173.232 37.5844C170.576 37.5844 168.544 37.0564 167.136 36.0004C165.728 34.9444 165.024 33.0244 165.024 30.2404Z" fill="#F8F9FA"/>
<path d="M188.592 10.9436C186.896 10.9436 185.68 10.5116 184.944 9.64762C184.24 8.78362 183.888 7.71163 183.888 6.43163C183.888 5.15163 184.272 4.09563 185.04 3.26363C185.84 2.43163 187.04 2.01562 188.64 2.01562C190.24 2.01562 191.456 2.39963 192.288 3.16763C193.12 3.90363 193.536 4.97563 193.536 6.38363C193.536 7.75963 193.136 8.86363 192.336 9.69563C191.536 10.5276 190.288 10.9436 188.592 10.9436ZM181.344 14.2556H193.104V36.2396H195.792V37.1036H181.536V36.2396H184.176V15.1196H181.344V14.2556Z" fill="#F8F9FA"/>
<path d="M211.296 0.816C210.08 0.816 209.28 1.28 208.896 2.208C208.512 3.104 208.32 4.56 208.32 6.576V14.256H214.656V15.12H208.32V36.24H214.176V37.104H196.752V36.24H199.392V15.12H196.608V14.256H199.392V14.064C199.392 9.456 200.272 5.968 202.032 3.6C203.792 1.2 206.736 0 210.864 0C213.584 0 215.536 0.544 216.72 1.632C217.904 2.688 218.496 3.92 218.496 5.328C218.496 6.736 218.128 7.792 217.392 8.496C216.656 9.2 215.68 9.552 214.464 9.552C213.248 9.552 212.304 9.248 211.632 8.64C210.992 8 210.672 7.28 210.672 6.48C210.672 5.648 210.768 4.848 210.96 4.08H212.784C213.424 1.904 212.928 0.816 211.296 0.816Z" fill="#F8F9FA"/>
<path d="M214.896 15.1199V14.2559H228.816V15.1199H226.224L231.456 31.0559L237.024 15.1199H233.808V14.2559H240.576V15.1199H238.176L229.2 40.9919C228.144 43.9999 226.96 46.0959 225.648 47.2799C224.336 48.4959 222.736 49.1039 220.848 49.1039C218.96 49.1039 217.472 48.6719 216.384 47.8079C215.296 46.9439 214.752 45.8399 214.752 44.4959C214.752 43.1519 215.104 42.1279 215.808 41.4239C216.512 40.7199 217.44 40.3679 218.592 40.3679C221.248 40.3679 222.576 41.4719 222.576 43.6799C222.576 44.1599 222.48 44.7359 222.288 45.4079H220.608C220.352 46.1439 220.32 46.7519 220.512 47.2319C220.704 47.7119 221.136 47.9519 221.808 47.9519C223.12 47.9519 224.288 47.2959 225.312 45.9839C226.336 44.7039 227.312 42.7359 228.24 40.0799L229.296 37.1039H225.072L216.864 15.1199H214.896Z" fill="#F8F9FA"/>
</svg>
