<?xml version="1.0" standalone="no"?>
<!DOCTYPE svg PUBLIC "-//W3C//DTD SVG 20010904//EN"
 "http://www.w3.org/TR/2001/REC-SVG-20010904/DTD/svg10.dtd">
<svg version="1.0" xmlns="http://www.w3.org/2000/svg"
 width="308.000000pt" height="308.000000pt" viewBox="0 0 308.000000 308.000000"
 preserveAspectRatio="xMidYMid meet">
<metadata>
Created by potrace 1.14, written by Peter Selinger 2001-2017
</metadata>
<g transform="translate(0.000000,308.000000) scale(0.100000,-0.100000)"
fill="#000000" stroke="none">
<path d="M1425 2978 c-107 -9 -141 -14 -200 -28 -290 -70 -517 -194 -714 -391
-225 -226 -363 -502 -411 -824 -13 -81 -16 -312 -6 -362 3 -16 8 -48 11 -72
21 -152 105 -380 192 -521 174 -281 441 -498 743 -605 84 -30 210 -64 263 -71
205 -27 365 -22 537 16 382 83 722 322 927 650 94 152 177 375 197 530 3 25 8
56 11 70 8 33 8 286 1 325 -2 17 -8 50 -11 75 -21 151 -101 370 -189 515 -102
169 -261 336 -427 447 -280 188 -605 274 -924 246z m245 -93 c161 -14 299 -53
455 -129 479 -233 765 -690 767 -1223 0 -72 -2 -140 -5 -150 -3 -10 -8 -40
-12 -68 -3 -27 -11 -68 -17 -90 -5 -22 -12 -48 -13 -57 -13 -66 -91 -244 -148
-338 -191 -312 -479 -522 -844 -614 -149 -37 -338 -50 -472 -31 -25 4 -55 8
-66 9 -83 11 -241 59 -340 104 -389 174 -684 540 -768 952 -119 581 134 1159
635 1453 255 150 525 209 828 182z"/>
<path d="M1441 2506 c-5 -6 -100 -256 -211 -556 -111 -300 -245 -660 -297
-800 -52 -140 -101 -274 -110 -298 -20 -52 -25 -56 -81 -53 -46 1 -65 -11 -55
-36 4 -10 45 -13 195 -13 l189 0 -3 22 c-3 21 -8 23 -78 25 -41 0 -83 1 -92 2
-17 1 -13 14 114 366 22 61 44 124 49 141 l9 31 249 0 249 1 90 -269 c76 -226
88 -269 74 -270 -9 0 -48 -1 -87 -2 -64 -2 -70 -4 -73 -25 l-3 -22 410 0 411
0 0 24 c0 23 -3 25 -55 24 -30 -1 -57 0 -59 3 -2 2 -77 204 -167 449 -90 245
-231 629 -314 855 l-150 409 -98 1 c-58 1 -101 -3 -106 -9z m-3 -784 c56 -169
102 -313 102 -319 0 -9 -58 -12 -220 -11 -121 1 -220 4 -220 9 0 4 27 81 59
171 33 89 83 229 112 311 29 81 55 147 58 147 4 0 52 -138 109 -308z"/>
</g>
</svg>
